# Apple ModelIO OBJ File: cube
mtllib cube.mtl
g 
v -0.5 0.5 -0.5
v 0.5 0.5 -0.5
v -0.5 -0.5 -0.5
v 0.5 -0.5 -0.5
v -0.5 -0.5 0.5
v 0.5 -0.5 0.5
v 0.5 0.5 0.5
v -0.5 0.5 0.5
vn 0 0 -1
vn 0 -1 0
vn 1 0 0
vn -1 0 0
vn 0 1 0
vn 0 0 1
vt 0.998008 0.998008
vt 0.001992 0.998008
vt 0.998008 0.00199199
vt 0.001992 0.00199199
usemtl material_1
f 1/1/1 2/2/1 3/3/1
f 3/3/1 2/2/1 4/4/1
f 3/4/2 4/3/2 5/2/2
f 5/2/2 4/3/2 6/1/2
f 6/4/3 4/3/3 7/2/3
f 7/2/3 4/3/3 2/1/3
f 3/4/4 5/3/4 1/2/4
f 1/2/4 5/3/4 8/1/4
f 8/4/5 7/3/5 1/2/5
f 1/2/5 7/3/5 2/1/5
f 5/4/6 6/3/6 8/2/6
f 8/2/6 6/3/6 7/1/6
s off
